<?xml version="1.0" encoding="UTF-8"?>
<svg width="124px" height="35px" viewBox="0 0 124 35" version="1.1" xmlns="http://www.w3.org/2000/svg" xmlns:xlink="http://www.w3.org/1999/xlink">
    <!-- Generator: Sketch 52.4 (67378) - http://www.bohemiancoding.com/sketch -->
    <title>logo</title>
    <desc>Created with Sketch.</desc>
    <defs>
        <linearGradient x1="0%" y1="0%" x2="100%" y2="89.1941138%" id="linearGradient-1">
            <stop stop-color="#3A1829" offset="0%"></stop>
            <stop stop-color="#262A33" offset="100%"></stop>
        </linearGradient>
        <linearGradient x1="50.0068146%" y1="-0.0214067278%" x2="50.0068146%" y2="99.9796126%" id="linearGradient-2">
            <stop stop-color="#212121" stop-opacity="0" offset="17.62%"></stop>
            <stop stop-color="#212121" offset="100%"></stop>
        </linearGradient>
    </defs>
    <g id="Page-1" stroke="none" stroke-width="1" fill="none" fill-rule="evenodd">
        <path d="M48.56,24.416 L45.92,24.416 L45.92,29 L42.104,29 L42.104,14.264 L48.56,14.264 C50.1920082,14.264 51.4919952,14.7079956 52.46,15.596 C53.4280048,16.4840044 53.912,17.7359919 53.912,19.352 C53.912,20.952008 53.4280048,22.1959956 52.46,23.084 C51.4919952,23.9720044 50.1920082,24.416 48.56,24.416 Z M50.168,19.352 C50.168,18.1199938 49.4960067,17.504 48.152,17.504 L45.92,17.504 L45.92,21.2 L48.152,21.2 C48.8240034,21.2 49.3279983,21.0360016 49.664,20.708 C50.0000017,20.3799984 50.168,19.9280029 50.168,19.352 Z M64.52,29 L60.896,29 L60.896,28.448 C60.703999,28.640001 60.3600025,28.8119992 59.864,28.964 C59.3679975,29.1160008 58.8480027,29.192 58.304,29.192 C57.1839944,29.192 56.2480038,28.8840031 55.496,28.268 C54.7439962,27.6519969 54.368,26.8000054 54.368,25.712 C54.368,24.6879949 54.7599961,23.8600032 55.544,23.228 C56.3280039,22.5959968 57.319994,22.28 58.52,22.28 C59.5440051,22.28 60.3359972,22.479998 60.896,22.88 L60.896,22.184 C60.896,21.8159982 60.7840011,21.5080012 60.56,21.26 C60.3359989,21.0119988 60.0080022,20.888 59.576,20.888 C58.9199967,20.888 58.496001,21.1519974 58.304,21.68 L54.752,21.68 C54.9120008,20.6079946 55.4359956,19.7160036 56.324,19.004 C57.2120044,18.2919964 58.3359932,17.936 59.696,17.936 C61.2320077,17.936 62.4199958,18.3239961 63.26,19.1 C64.1000042,19.8760039 64.52,20.967993 64.52,22.376 L64.52,29 Z M60.896,25.976 L60.896,25.352 C60.6399987,24.8559975 60.112004,24.608 59.312,24.608 C58.8959979,24.608 58.5440014,24.6959991 58.256,24.872 C57.9679986,25.0480009 57.824,25.3039983 57.824,25.64 C57.824,25.9920018 57.9679986,26.2559991 58.256,26.432 C58.5440014,26.6080009 58.8959979,26.696 59.312,26.696 C60.0960039,26.696 60.6239986,26.4560024 60.896,25.976 Z M73.136,28.256 L73.136,27.488 C72.527997,28.1920035 71.6720055,28.544 70.568,28.544 C69.0959926,28.544 67.9320043,28.044005 67.076,27.044 C66.2199957,26.043995 65.792,24.7760077 65.792,23.24 C65.792,21.7199924 66.2199957,20.460005 67.076,19.46 C67.9320043,18.459995 69.0959926,17.96 70.568,17.96 C71.6880056,17.96 72.543997,18.3119965 73.136,19.016 L73.136,18.2 L76.856,18.2 L76.856,27.44 C76.856,29.2800092 76.3480051,30.6759952 75.332,31.628 C74.3159949,32.5800048 72.9520086,33.056 71.24,33.056 C69.7839927,33.056 68.5800048,32.7120034 67.628,32.024 C66.6759952,31.3359966 66.104001,30.3760062 65.912,29.144 L69.536,29.144 C69.7600011,29.9120038 70.3279954,30.296 71.24,30.296 C72.5040063,30.296 73.136,29.6160068 73.136,28.256 Z M73.136,24.632 L73.136,21.848 C72.7679982,21.239997 72.2240036,20.936 71.504,20.936 C70.895997,20.936 70.4120018,21.1479979 70.052,21.572 C69.6919982,21.9960021 69.512,22.5519966 69.512,23.24 C69.512,23.9280034 69.6879982,24.4839979 70.04,24.908 C70.3920018,25.3320021 70.8799969,25.544 71.504,25.544 C72.2400037,25.544 72.7839982,25.240003 73.136,24.632 Z M85.376,25.232 L88.856,25.232 C88.663999,26.4800062 88.1200045,27.4599964 87.224,28.172 C86.3279955,28.8840036 85.184007,29.24 83.792,29.24 C82.1439918,29.24 80.816005,28.7200052 79.808,27.68 C78.799995,26.6399948 78.296,25.2800084 78.296,23.6 C78.296,21.9359917 78.8079949,20.5800052 79.832,19.532 C80.8560051,18.4839948 82.1519922,17.96 83.72,17.96 C85.3520082,17.96 86.6239954,18.455995 87.536,19.448 C88.4480046,20.440005 88.904,21.7519918 88.904,23.384 L88.904,24.32 L81.92,24.32 C82.0480006,25.6480066 82.6719944,26.312 83.792,26.312 C84.6400042,26.312 85.167999,25.9520036 85.376,25.232 Z M83.72,20.888 C82.8079954,20.888 82.2320012,21.4079948 81.992,22.448 L85.256,22.448 C85.2239998,21.9839977 85.0720014,21.6080014 84.8,21.32 C84.5279986,21.0319986 84.1680022,20.888 83.72,20.888 Z M99.104,14.264 L99.104,20.312 L103.856,14.264 L108.368,14.264 L103.208,20.744 L108.584,29 L104.048,29 L100.328,23.336 L99.104,24.896 L99.104,29 L95.24,29 L95.24,14.264 L99.104,14.264 Z M113.504,18.2 L113.504,29 L109.736,29 L109.736,18.2 L113.504,18.2 Z M113.768,15.272 C113.768,15.864003 113.560002,16.3479981 113.144,16.724 C112.727998,17.1000019 112.224003,17.288 111.632,17.288 C111.039997,17.288 110.536002,17.1000019 110.12,16.724 C109.703998,16.3479981 109.496,15.864003 109.496,15.272 C109.496,14.663997 109.703998,14.1720019 110.12,13.796 C110.536002,13.4199981 111.039997,13.232 111.632,13.232 C112.224003,13.232 112.727998,13.4199981 113.144,13.796 C113.560002,14.1720019 113.768,14.663997 113.768,15.272 Z M116.336,25.28 L116.336,21.128 L114.752,21.128 L114.752,18.2 L116.336,18.2 L116.336,15.224 L120.056,15.224 L120.056,18.2 L122.312,18.2 L122.312,21.128 L120.056,21.128 L120.056,24.728 C120.056,25.528004 120.439996,25.928 121.208,25.928 C121.640002,25.928 122.039998,25.8480008 122.408,25.688 L122.408,28.88 C121.911998,29.1040011 121.216004,29.216 120.32,29.216 C117.663987,29.216 116.336,27.9040131 116.336,25.28 Z M41.96,11 L41.45,11 L42.53,4.86 L46.08,4.86 L46,5.33 L42.95,5.33 L42.54,7.67 L45.43,7.67 L45.34,8.13 L42.46,8.13 L41.96,11 Z M46.65,5.33 L46.73,4.86 L51.74,4.86 L51.65,5.33 L49.4,5.33 L48.41,11 L47.9,11 L48.89,5.33 L46.65,5.33 Z M51.02,10.92 C50.9466663,10.8466663 50.91,10.7566672 50.91,10.65 C50.91,10.5433328 50.9466663,10.4516671 51.02,10.375 C51.0933337,10.298333 51.1799995,10.26 51.28,10.26 C51.3866672,10.26 51.4766663,10.298333 51.55,10.375 C51.6233337,10.4516671 51.66,10.5433328 51.66,10.65 C51.66,10.7566672 51.6233337,10.8466663 51.55,10.92 C51.4766663,10.9933337 51.3866672,11.03 51.28,11.03 C51.1799995,11.03 51.0933337,10.9933337 51.02,10.92 Z M55.44,9.71 L55.94,9.71 C55.7999993,10.1366688 55.5716683,10.4733321 55.255,10.72 C54.9383318,10.9666679 54.5566689,11.09 54.11,11.09 C53.5833307,11.09 53.1683349,10.9150018 52.865,10.565 C52.5616652,10.2149983 52.41,9.7500029 52.41,9.17 C52.41,8.436663 52.614998,7.803336 53.025,7.27 C53.4350021,6.736664 53.9799966,6.47 54.66,6.47 C55.1200023,6.47 55.483332,6.59499875 55.75,6.845 C56.016668,7.09500125 56.1666665,7.4299979 56.2,7.85 L55.7,7.85 C55.6666665,7.5633319 55.5600009,7.3366675 55.38,7.17 C55.1999991,7.0033325 54.9600015,6.92 54.66,6.92 C54.1333307,6.92 53.7100016,7.1366645 53.39,7.57 C53.0699984,8.0033355 52.91,8.5366635 52.91,9.17 C52.91,9.6233356 53.0199989,9.98166535 53.24,10.245 C53.4600011,10.5083347 53.7599981,10.64 54.14,10.64 C54.7800032,10.64 55.2133322,10.3300031 55.44,9.71 Z M58.56,10.65 C59.0533358,10.65 59.4633317,10.4383355 59.79,10.015 C60.1166683,9.59166455 60.28,9.0433367 60.28,8.37 C60.28,7.9299978 60.1700011,7.576668 59.95,7.31 C59.7299989,7.043332 59.4300019,6.91 59.05,6.91 C58.5566642,6.91 58.1466683,7.12166455 57.82,7.545 C57.4933317,7.96833545 57.33,8.5166633 57.33,9.19 C57.33,9.6300022 57.4399989,9.983332 57.66,10.25 C57.8800011,10.516668 58.1799981,10.65 58.56,10.65 Z M58.56,11.09 C58.026664,11.09 57.6050016,10.9166684 57.295,10.57 C56.9849985,10.2233316 56.83,9.7633362 56.83,9.19 C56.83,8.4033294 57.0433312,7.7533359 57.47,7.24 C57.8966688,6.7266641 58.4233302,6.47 59.05,6.47 C59.583336,6.47 60.0049985,6.6433316 60.315,6.99 C60.6250016,7.3366684 60.78,7.7966638 60.78,8.37 C60.78,9.1566706 60.5666688,9.8066641 60.14,10.32 C59.7133312,10.8333359 59.1866698,11.09 58.56,11.09 Z M65.13,7.31 C65.5833356,6.7499972 66.0833306,6.47 66.63,6.47 C67.0100019,6.47 67.2983324,6.57833225 67.495,6.795 C67.6916677,7.01166775 67.79,7.2999982 67.79,7.66 C67.79,7.7466671 67.7766668,7.8766658 67.75,8.05 L67.24,11 L66.75,11 L67.24,8.14 C67.2666668,8.0133327 67.28,7.8866673 67.28,7.76 C67.28,7.2066639 67.0266692,6.93 66.52,6.93 C65.9599972,6.93 65.5066684,7.2499968 65.16,7.89 L64.61,11 L64.12,11 L64.61,8.14 C64.6366668,8.0133327 64.65,7.8866673 64.65,7.76 C64.65,7.2066639 64.3966692,6.93 63.89,6.93 C63.3433306,6.93 62.8900018,7.2499968 62.53,7.89 L61.98,11 L61.49,11 L62.27,6.56 L62.76,6.56 L62.64,7.26 C63.0266686,6.7333307 63.4933306,6.47 64.04,6.47 C64.3400015,6.47 64.5833324,6.5466659 64.77,6.7 C64.9566676,6.8533341 65.0766664,7.0566654 65.13,7.31 Z" id="Combined-Shape" fill="url(#linearGradient-1)"></path>
        <g id="Group-2" transform="translate(2.000000, 3.500000)">
            <path d="M31.5652542,26.6333684 L3.31355932,26.0024211 C2.83525424,26.0024211 1.63372881,25.1952632 1.63372881,24.7234737 L0.270847458,1.84168421 C0.126779661,0.454736842 1.57322034,0.216 2.72,0.0966315789 L30.9025424,0.0966315789 C33.4986441,0.0966315789 33.7349153,0.460421053 33.7349153,1.12263158 L33.0001695,24.4762105 C33.0030508,24.948 32.6918644,26.6333684 31.5652542,26.6333684 Z" id="Path" fill="#CCC1B7"></path>
            <path d="M32.8589831,1.188 C32.9425424,0.750315789 33.4611864,0.454736842 33.4611864,0.454736842 C32.9944068,0.00284210526 30.2398305,0.0710526316 29.9488136,0.0937894737 C30.2138983,0.119368421 31.6833898,0.358105263 31.9628814,0.775894737 C32.5333898,1.62284211 31.7381356,18.9 32.1933898,18.9 C32.3316949,18.9 32.3662712,17.9905263 32.3720339,17.9081053 C32.4469492,17.0583158 32.4815254,16.2056842 32.5189831,15.3530526 C32.5679661,14.1906316 32.6025424,13.0282105 32.6342373,11.8629474 C32.6688136,10.5982105 32.6947458,9.33347368 32.720678,8.06873684 C32.7437288,6.91484211 32.8013559,1.50631579 32.8589831,1.188 Z" id="Path" fill="#999189"></path>
            <path d="M32.0147458,21.5630526 C32.1357627,21.8756842 32.1933898,22.1883158 32.2394915,22.5009474 C32.2827119,22.8135789 32.3,23.1262105 32.3028814,23.4388421 C32.3028814,23.7514737 32.2827119,24.0641053 32.2423729,24.3767368 C32.1962712,24.6893684 32.1357627,25.002 32.0147458,25.3146316 C31.8937288,25.002 31.8332203,24.6893684 31.7871186,24.3767368 C31.7438983,24.0641053 31.7266102,23.7514737 31.7266102,23.4388421 C31.7266102,23.1262105 31.7467797,22.8135789 31.79,22.5009474 C31.8332203,22.1883158 31.8937288,21.8756842 32.0147458,21.5630526 Z" id="Path" fill="#999189"></path>
            <path d="M31.5681356,26.6305263 C31.5681356,26.6305263 4.44881356,26.6390526 2.81220339,26.6390526 C1.17559322,26.6390526 0.279491525,25.1497895 0.279491525,23.9191579 L0.270847458,1.84168421 C0.270847458,1.36989474 0.656949153,0.989052632 1.13525424,0.989052632 L29.8911864,0.980526316 C30.3694915,0.980526316 30.7555932,1.36136842 30.7555932,1.83315789 C30.7555932,1.83315789 30.6518644,22.1655789 30.7613559,23.9106316 C30.9255932,26.4884211 31.5681356,26.6305263 31.5681356,26.6305263 Z" id="Path" fill="#FFF1E5"></path>
            <path d="M3.48310208,4.53832769 C3.48310208,4.67704561 3.52350099,4.70874655 3.78196354,4.70874655 L3.78196354,4.79592999 L2.88135593,4.79592999 L2.88135593,4.70874655 C3.05904447,4.70874655 3.11965474,4.6928844 3.11965474,4.54229907 L3.11965474,3.12746048 C3.11965474,2.9768518 3.05904447,2.96098964 2.88135593,2.96098964 L2.88135593,2.87380621 L4.39180376,2.87380621 L4.39989782,3.40090156 L4.32719407,3.40090156 C4.28679516,3.00460472 4.1858336,2.96895576 3.81024516,2.96895576 L3.47907885,2.96895576 L3.47907885,3.75365341 L3.74561167,3.75365341 C4.00005099,3.75365341 4.01621532,3.71400971 4.03640287,3.51586129 L4.10910662,3.51586129 L4.10910662,4.09051974 L4.03640287,4.09051974 C4.01621532,3.89237132 4.00005099,3.85667564 3.74561167,3.85667564 L3.47907885,3.85667564 L3.47907885,4.53835106 L3.48312589,4.53835106 L3.48310208,4.53832769 Z M4.58565662,4.79592999 L4.58565662,4.70874655 C4.76336897,4.70874655 4.82395543,4.6928844 4.82395543,4.54229907 L4.82395543,3.12746048 C4.82395543,2.9768518 4.76336897,2.96098964 4.58565662,2.96098964 L4.58565662,2.87380621 L5.42570158,2.87380621 L5.42570158,2.961013 C5.24798923,2.961013 5.18740277,2.97687516 5.18740277,3.12748384 L5.18740277,4.54232243 C5.18740277,4.69290776 5.24798923,4.70876991 5.42570158,4.70876991 L5.42570158,4.79595335 L4.58563282,4.79595335 L4.58565662,4.79592999 Z M7.33192539,4.82763093 L5.99109585,3.19878176 L5.99109585,4.53437968 C5.99109585,4.68895974 6.10012767,4.71271793 6.28593409,4.71271793 L6.28593409,4.79992473 L5.57513231,4.79992473 L5.57513231,4.71271793 C5.76089111,4.71271793 5.86187648,4.68895974 5.86187648,4.53437968 L5.86187648,3.05214446 C5.77705543,2.96496102 5.71646897,2.96098964 5.57513231,2.96098964 L5.57513231,2.87380621 L6.20516008,2.87380621 L7.23096383,4.16976042 L7.23096383,3.13537988 C7.23096383,2.98082317 7.12193201,2.95704163 6.9361494,2.95704163 L6.9361494,2.87380621 L7.65097441,2.87380621 L7.65097441,2.961013 C7.46521561,2.961013 7.36423024,2.98479455 7.36423024,3.13937462 L7.36423024,4.82767765 L7.33192539,4.82767765 L7.33192539,4.82763093 Z M8.28909624,4.79592999 L7.58231769,4.79592999 L7.58231769,4.70874655 C7.76810029,4.70874655 7.85292134,4.684965 7.91348399,4.52643692 L8.55160582,2.85399604 L8.72929436,2.85399604 L9.41586156,4.53832769 C9.47644802,4.68893638 9.50470583,4.70477517 9.6460663,4.70477517 L9.6460663,4.79195861 L8.8262327,4.79195861 L8.8262327,4.70477517 C9.07662499,4.70477517 9.10085958,4.684965 9.04024931,4.53832769 L8.83834999,4.02709449 L8.22446275,4.02709449 L8.04275098,4.52246554 C7.98621155,4.67307423 8.07505582,4.70477517 8.29314327,4.70477517 L8.29314327,4.79592999 L8.28909624,4.79592999 Z M8.26081462,3.92799692 L8.79390405,3.92799692 L8.51525395,3.23842547 L8.26081462,3.92799692 Z M11.4876804,4.82763093 L10.1508979,3.19878176 L10.1508979,4.53437968 C10.1508979,4.68895974 10.2599297,4.71271793 10.4457123,4.71271793 L10.4457123,4.79992473 L9.75105109,4.79992473 L9.75105109,4.71271793 C9.92069318,4.71271793 10.0216547,4.68895974 10.0216547,4.53437968 L10.0216547,3.05611584 C9.92474021,2.9689324 9.85203646,2.96098964 9.69051224,2.96098964 L9.69051224,2.87380621 L10.3608913,2.87380621 L11.3866951,4.16976042 L11.3866951,3.13537988 C11.3866951,2.98082317 11.2776632,2.95704163 11.0919044,2.95704163 L11.0919044,2.87380621 L11.8027062,2.87380621 L11.8027062,2.961013 C11.6169236,2.961013 11.515962,2.98479455 11.515962,3.13937462 L11.515962,4.82767765 L11.4876804,4.82767765 L11.4876804,4.82763093 Z M13.470655,2.86985819 L13.5191242,2.86985819 L13.547382,3.44449328 L13.4747021,3.44846466 C13.4262329,3.11954109 13.2485444,2.94515085 12.9214013,2.94515085 C12.5579301,2.94515085 12.2833032,3.25031624 12.2833032,3.71795773 C12.2833032,4.31639773 12.6669619,4.65721208 13.0708082,4.65721208 C13.2444973,4.65721208 13.4019983,4.60967234 13.5554523,4.44719624 L13.6120155,4.50265537 C13.4867955,4.67704561 13.2404503,4.82368291 12.9092602,4.82368291 C12.4165697,4.82368291 11.9157851,4.45906365 11.9157851,3.84873288 C11.9157613,3.25823564 12.3721237,2.84210526 12.9254483,2.84210526 C13.1879579,2.84210526 13.3252713,2.95307025 13.3979513,2.95307025 C13.4302561,2.95307025 13.4544907,2.92534068 13.470655,2.86985819 Z M13.7735397,4.79592999 L13.7735397,4.70874655 C13.9512521,4.70874655 14.0118385,4.6928844 14.0118385,4.54229907 L14.0118385,3.12746048 C14.0118385,2.9768518 13.9512521,2.96098964 13.7735397,2.96098964 L13.7735397,2.87380621 L14.6135847,2.87380621 L14.6135847,2.961013 C14.4358961,2.961013 14.3752859,2.97687516 14.3752859,3.12748384 L14.3752859,4.54232243 C14.3752859,4.69290776 14.4358961,4.70876991 14.6135847,4.70876991 L14.6135847,4.79595335 L13.7735397,4.79595335 L13.7735397,4.79592999 Z M15.4051605,4.79592999 L14.7468511,4.79592999 L14.7468511,4.70874655 C14.8922586,4.70874655 14.9689856,4.684965 15.029572,4.52643692 L15.66767,2.85399604 L15.8453586,2.85399604 L16.5319258,4.53832769 C16.5925122,4.68893638 16.6207939,4.70477517 16.7621305,4.70477517 L16.7621305,4.79195861 L15.9423207,4.79195861 L15.9423207,4.70477517 C16.192713,4.70477517 16.2169476,4.684965 16.1563611,4.53832769 L15.954438,4.02709449 L15.3405746,4.02709449 L15.1588152,4.52246554 C15.1022758,4.67307423 15.1911439,4.70477517 15.4092313,4.70477517 L15.4092313,4.79592999 L15.4051843,4.79592999 L15.4051605,4.79592999 Z M15.3768788,3.92799692 L15.9099921,3.92799692 L15.6353652,3.23842547 L15.3768788,3.92799692 Z M16.899444,4.79592999 L16.899444,4.70874655 C17.0771563,4.70874655 17.1377428,4.6928844 17.1377428,4.54229907 L17.1377428,3.12746048 C17.1377428,2.9768518 17.0771563,2.96098964 16.899444,2.96098964 L16.899444,2.87380621 L17.7354419,2.87380621 L17.7354419,2.961013 C17.5577533,2.961013 17.5011901,2.97687516 17.5011901,3.12748384 L17.5011901,4.55421321 C17.5011901,4.68101698 17.5658236,4.69687914 17.6708322,4.69687914 L17.7717938,4.69687914 C18.1514292,4.69687914 18.2725783,4.64139664 18.3775869,4.21734688 L18.4502907,4.22526627 L18.3897042,4.79200533 L16.899444,4.79200533 L16.899444,4.79597671 L16.899444,4.79592999 Z M20.9704018,2.87380621 L20.978472,3.43260251 L20.9057683,3.43260251 C20.865417,3.02044351 20.7644316,2.96895576 20.3888194,2.96895576 L20.2676702,2.96895576 L20.2676702,4.53835106 C20.2676702,4.68895974 20.3242097,4.70876991 20.5665317,4.70876991 L20.5665317,4.79595335 L19.6053376,4.79595335 L19.6053376,4.70876991 C19.8476597,4.70876991 19.9082223,4.68498836 19.9082223,4.53835106 L19.9082223,2.9689324 L19.7870732,2.9689324 C19.4114848,2.9689324 19.3105232,3.02044351 19.2701243,3.43260251 L19.1974443,3.43260251 L19.2055146,2.87380621 L20.9704018,2.87380621 Z M21.1602076,4.79595335 L21.1602076,4.70874655 C21.3379199,4.70874655 21.3985064,4.6928844 21.3985064,4.54229907 L21.3985064,3.12746048 C21.3985064,2.9768518 21.3379199,2.96098964 21.1602076,2.96098964 L21.1602076,2.87380621 L22.0002525,2.87380621 L22.0002525,2.961013 C21.8225402,2.961013 21.7619537,2.97687516 21.7619537,3.12748384 L21.7619537,4.54232243 C21.7619537,4.69290776 21.8225402,4.70876991 22.0002525,4.70876991 L22.0002525,4.79595335 L21.1602076,4.79595335 Z M24.5284577,2.87378285 L24.5284577,2.961013 C24.3507453,2.961013 24.2740183,2.96895576 24.2901589,3.12351246 L24.4436366,4.55024183 C24.459801,4.69687914 24.5163404,4.71271793 24.6940289,4.71271793 L24.6940289,4.79992473 L23.858031,4.79992473 L23.858031,4.71271793 C24.0316963,4.71271793 24.0922828,4.69687914 24.0801655,4.55024183 L23.9226407,3.0521211 L23.3047302,4.83157895 L23.2804956,4.83157895 L22.6746786,3.04819644 L22.5292711,4.54624709 C22.5131306,4.69685578 22.6181392,4.71269457 22.7958278,4.71269457 L22.7958278,4.79990136 L22.1415654,4.79990136 L22.1415654,4.71269457 C22.3192778,4.71269457 22.3798642,4.684965 22.3919577,4.54624709 L22.5454355,3.11951772 C22.5615998,2.9689324 22.484849,2.95704163 22.3071367,2.95704163 L22.3071367,2.87380621 L22.9937038,2.87380621 L23.405668,4.18559921 L23.8499131,2.87380621 L24.5283863,2.87380621 L24.5284577,2.87378285 Z M26.0913979,4.09047302 L26.0187179,4.09047302 C25.9985066,3.8923246 25.9823661,3.85662891 25.7279267,3.85662891 L25.4290415,3.85662891 L25.4290415,4.55416649 C25.4290415,4.68097026 25.493675,4.69683241 25.5986598,4.69683241 L25.7602078,4.69683241 C26.1398433,4.69683241 26.2609924,4.64134992 26.366001,4.21730015 L26.4387047,4.22521955 L26.370048,4.79195861 L24.8272953,4.79195861 L24.8272953,4.70475181 C25.0049839,4.70475181 25.0655703,4.68891302 25.0655703,4.53830433 L25.0655703,3.12746048 C25.0655703,2.9768518 25.0049839,2.96098964 24.8272715,2.96098964 L24.8272715,2.87380621 L26.3094615,2.87380621 L26.3175556,3.35333847 L26.2448519,3.35333847 C26.2004297,3.01250076 26.1115854,2.97288042 25.7238559,2.97288042 L25.4330885,2.97288042 L25.4330885,3.75360669 L25.73195,3.75360669 C25.9863655,3.75360669 26.0025298,3.71398635 26.0227174,3.51583793 L26.0954211,3.51583793 L26.0954211,4.09049638 L26.0913741,4.09049638 L26.0913979,4.09047302 Z M27.6503149,4.39958642 C27.6503149,4.22521955 27.537236,4.13803611 27.3433832,4.03101915 L27.0324044,3.87249107 C26.7981526,3.74963531 26.660863,3.61488878 26.660863,3.37314864 C26.6608392,3.07197799 26.9233488,2.84210526 27.2666324,2.84210526 C27.5008842,2.84210526 27.6220333,2.95307025 27.69069,2.95307025 C27.7351121,2.95307025 27.7552997,2.92534068 27.7754872,2.86985819 L27.8320267,2.86985819 L27.8603083,3.40884432 L27.7876045,3.4128157 C27.7472294,3.15121867 27.5573998,2.94909887 27.290867,2.94909887 C27.08892,2.94909887 26.9556536,3.06800661 26.9556536,3.23445409 C26.9556536,3.41676372 27.0969903,3.49205638 27.2545151,3.5752918 L27.5210479,3.71398635 C27.771464,3.84873288 27.9491525,3.98347941 27.9491525,4.2410817 C27.9491525,4.58191941 27.6502911,4.82368291 27.2787497,4.82368291 C27.0162163,4.82368291 26.8869969,4.70080379 26.8183402,4.70080379 C26.7739181,4.70080379 26.7496835,4.74044749 26.7294959,4.79990136 L26.6729327,4.79990136 L26.6325576,4.22919093 L26.7052613,4.22127153 C26.7618008,4.57794803 27.0121931,4.72458534 27.2625853,4.72458534 C27.4726025,4.72061396 27.6502911,4.62948251 27.6502911,4.39963315 L27.6503149,4.39958642 Z" id="Shape" fill="#4D4845"></path>
            <path d="M2.61915254,13.7358947 L9.83983051,13.7358947" id="Path" stroke="#CCC1B7" stroke-width="0.5625"></path>
            <path d="M2.61915254,15.7083158 L9.83983051,15.7083158" id="Path" stroke="#CCC1B7" stroke-width="0.5625"></path>
            <path d="M12.0094915,13.7813684 L19.2301695,13.7813684" id="Path" stroke="#CCC1B7" stroke-width="0.5625"></path>
            <path d="M12.0094915,15.7509474 L19.2301695,15.7509474" id="Path" stroke="#CCC1B7" stroke-width="0.5625"></path>
            <path d="M2.61915254,8.67410526 L28.6233898,8.67410526" id="Path" stroke="#4D4845" stroke-width="0.5625" stroke-linejoin="round"></path>
            <path d="M21.3998305,11.8089474 L28.6233898,11.8089474" id="Path" stroke="#CCC1B7" stroke-width="0.5625"></path>
            <path d="M21.3998305,13.7813684 L28.6233898,13.7813684" id="Path" stroke="#CCC1B7" stroke-width="0.5625"></path>
            <path d="M21.3998305,17.7233684 L28.6233898,17.7233684" id="Path" stroke="#CCC1B7" stroke-width="0.5625"></path>
            <path d="M21.3998305,19.6957895 L28.6233898,19.6957895" id="Path" stroke="#CCC1B7" stroke-width="0.5625"></path>
            <path d="M21.3998305,21.6653684 L28.6233898,21.6653684" id="Path" stroke="#CCC1B7" stroke-width="0.5625"></path>
            <path d="M21.3998305,23.6377895 L28.6233898,23.6377895" id="Path" stroke="#CCC1B7" stroke-width="0.5625"></path>
            <path d="M21.3998305,25.6102105 L28.6233898,25.6102105" id="Path" stroke="#CCC1B7" stroke-width="0.5625"></path>
            <rect id="Rectangle" fill="#807973" x="21.4171186" y="15.0631579" width="7.22067797" height="1.25621053"></rect>
            <path d="M3.12338983,26.0535789 L3.12050847,26.0564211 C3.16661017,26.1161053 3.21271186,26.1729474 3.25881356,26.2241053 L3.12338983,26.0535789 Z" id="Path" fill="#424242" opacity="0.2"></path>
            <rect id="Rectangle" fill="#807973" x="2.61915254" y="11.1808421" width="16.7291525" height="1.25621053"></rect>
            <path d="M19.2445763,24.3767368 C19.2445763,25.5647368 19.9677966,26.6333684 19.9677966,26.6333684 L3.79762712,26.6333684 C3.79762712,26.6333684 2.61915254,26.0962105 2.61915254,24.3767368 C2.61915254,23.4502105 2.61915254,17.4903158 2.61915254,17.4903158 L19.2474576,17.4903158 C19.2445763,17.4903158 19.2445763,23.4502105 19.2445763,24.3767368 Z" id="Path" fill="#CCC1B7"></path>
            <g id="Group" transform="translate(2.881356, 18.473684)" fill="#807973">
                <path d="M14.830339,6.50842105 C14.8188136,6.51410526 14.5767797,6.69315789 14.6315254,6.804 C14.6833898,6.91484211 14.7266102,7.12515789 14.8389831,6.97736842 C14.9513559,6.83242105 14.9916949,6.40326316 14.830339,6.50842105 Z" id="Path"></path>
                <path d="M14.4557627,6.89210526 C14.2511864,7.29568421 13.4069492,7.68505263 14.1676271,7.42642105 C14.7179661,7.24168421 14.6718644,7.01715789 14.6027119,6.90915789 C14.5710169,6.858 14.4816949,6.83810526 14.4557627,6.89210526 Z" id="Path"></path>
                <path d="M4.53813559,7.94936842 L5.40830508,7.04842105 C5.48033898,6.97452632 5.52355932,6.87789474 5.53220339,6.77557895 L5.53508475,6.75 C5.54372881,6.64768421 5.61864407,6.56242105 5.71949153,6.53968421 L5.88661017,6.50273684 C5.95288136,6.48852632 6.00762712,6.44589474 6.03932203,6.38905263 L6.32169492,5.88315789 C6.38508475,5.76663158 6.33898305,5.62168421 6.2179661,5.56484211 L5.8059322,5.36873684 C5.71372881,5.32610526 5.64457627,5.24652632 5.61288136,5.14989474 C5.58983051,5.076 5.54084746,5.01063158 5.47745763,4.96515789 L5.26711864,4.81168421 C5.13457627,4.71505263 4.98186441,4.65536842 4.82050847,4.63263158 L4.52372881,4.59284211 C4.40271186,4.57578947 4.28457627,4.63263158 4.22118644,4.73494737 C4.19813559,4.77189474 4.15491525,4.79178947 4.11169492,4.78610526 L4.10016949,4.78326316 C4.04830508,4.77757895 4.01084746,4.73778947 4.00508475,4.68663158 L3.99067797,4.55589474 C3.98491525,4.50189474 3.9359322,4.45926316 3.88118644,4.45926316 C3.80627119,4.45926316 3.75152542,4.38536842 3.77745763,4.31431579 L3.78898305,4.27736842 C3.80627119,4.22905263 3.77169492,4.17789474 3.71983051,4.17505263 L3.63050847,4.16936842 C3.5959322,4.16652632 3.56423729,4.17789474 3.53830508,4.20063158 C3.47779661,4.25463158 3.38271186,4.24042105 3.34525424,4.16936842 L3.33949153,4.16084211 C3.31932203,4.12673684 3.31644068,4.08694737 3.33372881,4.05284211 L3.37694915,3.95052632 C3.42016949,3.84821053 3.51237288,3.77715789 3.62186441,3.76010526 L3.76881356,3.73736842 C3.85237288,3.726 3.93016949,3.77431579 3.95610169,3.85389474 L3.95610169,3.85673684 C3.97915254,3.93347368 4.05694915,3.98178947 4.13474576,3.97042105 C4.17508475,3.96473684 4.20677966,3.92778947 4.20389831,3.888 L4.18949153,3.66347368 C4.18949153,3.64357895 4.19525424,3.62368421 4.20677966,3.60947368 L4.21254237,3.60378947 C4.46610169,3.30252632 4.78881356,3.06663158 5.15186441,2.916 L5.3679661,2.82789474 C5.50050847,2.77389474 5.56101695,2.62326316 5.50338983,2.49252632 L5.23830508,1.88715789 C5.21237288,1.83031579 5.14322034,1.81042105 5.09135593,1.84168421 C5.03949153,1.87578947 4.97033898,1.85589474 4.94440678,1.79905263 L4.84067797,1.58305263 C4.80322034,1.50631579 4.72542373,1.45515789 4.63898305,1.45515789 L4.62169492,1.45515789 C4.50644068,1.45515789 4.41135593,1.54042105 4.39983051,1.65410526 L4.3479661,2.16852632 C4.34220339,2.21684211 4.30762712,2.25378947 4.25864407,2.26231579 C4.2240678,2.268 4.19237288,2.25663158 4.16644068,2.23389474 L3.71118644,1.77915789 C3.65932203,1.728 3.64491525,1.64842105 3.67372881,1.58021053 C3.74576271,1.41821053 3.89271186,1.30452632 4.06847458,1.27326316 L4.14627119,1.25905263 C4.28457627,1.23631579 4.37966102,1.11126316 4.36813559,0.974842105 L4.34508475,0.679263158 C4.33355932,0.551368421 4.21542373,0.460421053 4.08864407,0.483157895 L3.35966102,0.602526316 C3.08305085,0.648 2.80067797,0.594 2.56152542,0.451894737 L2.31949153,0.306947368 C2.25898305,0.272842105 2.18694915,0.27 2.12932203,0.298421053 C2.07457627,0.324 2.00542373,0.321157895 1.95932203,0.358105263 C1.63372881,0.625263158 0.440847458,0.656526316 0.377457627,0.662210526 C0.345762712,0.665052632 0.319830508,0.684947368 0.308305085,0.713368421 L0.267966102,0.815684211 C0.250677966,0.861157895 0.279491525,0.912315789 0.328474576,0.920842105 C0.388983051,0.932210526 0.412033898,1.00326316 0.374576271,1.04873684 L0.267966102,1.17378947 C0.267966102,1.17378947 0.267966102,1.17378947 0.267966102,1.17378947 C0.244915254,1.20221053 0.259322034,1.24484211 0.291016949,1.25905263 L0.714576271,1.44947368 C0.861525424,1.51484211 1.02,1.53473684 1.18135593,1.51768421 C1.26491525,1.50915789 1.35135593,1.52621053 1.42915254,1.57168421 L1.46661017,1.59442105 C1.64525424,1.69957895 1.79508475,1.84168421 1.91033898,2.01221053 L2.03711864,2.20263158 C2.12932203,2.34189474 2.18118644,2.50105263 2.18983051,2.66589474 L2.20135593,2.91031579 C2.20711864,3.04105263 2.24745763,3.16894737 2.31372881,3.28263158 L2.80932203,4.11821053 C2.87847458,4.23757895 2.9879661,4.32852632 3.12050847,4.37684211 L3.63338983,4.56726316 C3.64779661,4.57294737 3.65932203,4.58147368 3.6679661,4.59284211 L3.87830508,4.86852632 C3.89271186,4.88842105 3.91576271,4.90263158 3.94169492,4.90831579 L3.96762712,4.914 C4.04254237,4.93105263 4.07711864,5.01631579 4.03677966,5.07884211 L4.02237288,5.09873684 C3.95898305,5.19821053 3.9359322,5.31757895 3.96186441,5.43410526 L4.03966102,5.79221053 C4.06559322,5.90873684 4.12610169,6.01673684 4.21254237,6.09915789 L4.28745763,6.17021053 C4.3940678,6.26968421 4.43440678,6.42031579 4.3940678,6.55673684 L4.03101695,7.81863158 C4.00220339,7.92094737 4.00508475,8.03178947 4.03966102,8.13126316 L4.04254237,8.13694737 L4.46610169,8.13694737 C4.45457627,8.08294737 4.48050847,8.00905263 4.53813559,7.94936842 Z" id="Path"></path>
                <path d="M6.63,0.173368421 L5.91254237,0.0397894737 C5.85491525,0.0142105263 5.78,0.00284210526 5.70220339,0.00852631579 L5.41694915,0.0284210526 C5.33915254,0.0341052632 5.27,0.0568421053 5.23254237,0.0881052632 L4.71101695,0.412105263 C4.6620339,0.451894737 4.66779661,0.503052632 4.72254237,0.54 L4.87525424,0.645157895 C4.91847458,0.676421053 4.93288136,0.713368421 4.90983051,0.750315789 C4.87813559,0.798631579 4.91559322,0.852631579 5.0020339,0.883894737 L5.07694915,0.909473684 C5.14610169,0.932210526 5.18355932,0.972 5.18067797,1.01178947 L5.1720339,1.14536842 C5.16627119,1.22494737 5.31898305,1.28463158 5.48033898,1.26757895 L5.60711864,1.25336842 C5.69067797,1.24484211 5.75983051,1.21642105 5.79152542,1.17947368 L6.69627119,0.306947368 C6.7279661,0.258631579 6.7020339,0.207473684 6.63,0.173368421 Z" id="Path"></path>
                <path d="M6.99881356,0.960631579 C6.96135593,0.909473684 6.88644068,0.898105263 6.83457627,0.935052632 L6.77694915,0.974842105 C6.73661017,1.00326316 6.71355932,1.05442105 6.72220339,1.10273684 L6.73372881,1.18231579 C6.73661017,1.19368421 6.73372881,1.20221053 6.7279661,1.21073684 L6.66457627,1.33010526 C6.62423729,1.40684211 6.65016949,1.50063158 6.72220339,1.54610526 L6.74813559,1.56315789 C6.7740678,1.58021053 6.80576271,1.56884211 6.81728814,1.54326316 C6.83745763,1.49778947 6.90949153,1.50915789 6.90949153,1.56031579 C6.91237288,1.61715789 6.97288136,1.65410526 7.02474576,1.62852632 L7.14,1.57452632 C7.18322034,1.55463158 7.21779661,1.52052632 7.2379661,1.47789474 C7.27254237,1.40684211 7.26677966,1.32442105 7.21779661,1.25905263 L6.99881356,0.960631579 Z" id="Path"></path>
                <path d="M15.6428814,0.733263158 C15.6140678,0.650842105 15.5391525,0.594 15.4527119,0.582631579 L13.4616949,0.343894737 L12.3437288,0.181894737 C12.2745763,0.170526316 12.2025424,0.170526316 12.1305085,0.176210526 L10.9750847,0.446210526 C10.8281356,0.480315789 10.6754237,0.497368421 10.5255932,0.494526316 L9.13677966,0.468947368 C9.07627119,0.474631579 9.01288136,0.471789474 8.95237288,0.460421053 L8.22338983,0.321157895 C8.15711864,0.309789474 8.0879661,0.318315789 8.03033898,0.346736842 L7.79983051,0.457578947 C7.73067797,0.491684211 7.67881356,0.551368421 7.65576271,0.625263158 L7.61254237,0.773052632 C7.58661017,0.858315789 7.53186441,0.926526316 7.46271186,0.983368421 C7.4079661,1.02884211 7.37627119,1.09705263 7.37915254,1.17094737 L7.38491525,1.33578947 C7.38779661,1.37273684 7.41084746,1.404 7.44542373,1.41536842 C7.47423729,1.42389474 7.5059322,1.41821053 7.53186441,1.39831579 L7.60389831,1.34431579 C7.64135593,1.31589474 7.68457627,1.33010526 7.69610169,1.36421053 L7.73067797,1.458 C7.76237288,1.54894737 7.86898305,1.59157895 7.95542373,1.54894737 C7.96694915,1.54326316 7.97559322,1.53189474 7.98135593,1.52052632 L8.0620339,1.30168421 C8.0879661,1.23063158 8.07644068,1.14536842 8.01881356,1.09989474 C7.99576271,1.08 7.98711864,1.04873684 8.00440678,1.02031579 L8.20033898,0.670736842 C8.20898305,0.653684211 8.22915254,0.648 8.24644068,0.656526316 L8.26949153,0.665052632 C8.28677966,0.673578947 8.29542373,0.693473684 8.28966102,0.710526316 L8.22338983,0.892421053 C8.21762712,0.906631579 8.20610169,0.918 8.19169492,0.923684211 L8.1859322,0.926526316 C8.15711864,0.937894737 8.14271186,0.972 8.15423729,1.00042105 L8.17440678,1.04021053 C8.21762712,1.12831579 8.30983051,1.18515789 8.40779661,1.17947368 C8.41932203,1.17947368 8.43084746,1.18231579 8.44237288,1.188 L8.45101695,1.19368421 C8.49423729,1.22210526 8.47983051,1.28463158 8.43084746,1.29315789 L8.35305085,1.30736842 C8.33288136,1.31021053 8.31847458,1.32442105 8.30983051,1.34147368 L8.29254237,1.38694737 C8.28389831,1.40684211 8.28966102,1.43242105 8.30694915,1.44663158 L8.34440678,1.48073684 C8.3559322,1.49210526 8.35881356,1.50915789 8.35016949,1.52621053 C8.34152542,1.54326316 8.31847458,1.54894737 8.30118644,1.54042105 L8.24932203,1.512 C8.22050847,1.49778947 8.1859322,1.50915789 8.17152542,1.54042105 L8.09084746,1.73652632 C8.08220339,1.75926316 8.05915254,1.77347368 8.03322034,1.77063158 L7.72779661,1.73652632 C7.70474576,1.73368421 7.68457627,1.71947368 7.67305085,1.69673684 L7.65288136,1.64557895 C7.63559322,1.60578947 7.58949153,1.58873684 7.55491525,1.61147368 C7.52898305,1.62852632 7.52033898,1.65978947 7.52898305,1.68536842 C7.54627119,1.73652632 7.5059322,1.79052632 7.45118644,1.79052632 L7.42813559,1.79052632 C7.38779661,1.79052632 7.35322034,1.81894737 7.34745763,1.85589474 C7.3359322,1.91842105 7.29271186,1.97242105 7.23220339,1.99515789 L7.06220339,2.06336842 C6.99305085,2.09178947 6.96135593,2.17136842 6.9959322,2.23673684 L7.03915254,2.32484211 C7.07661017,2.40157895 7.01610169,2.48968421 6.92966102,2.48115789 C6.80864407,2.46694737 6.70491525,2.56357895 6.69915254,2.68294737 L6.69627119,2.71705263 C6.69338983,2.79094737 6.74237288,2.85063158 6.80864407,2.85915789 L6.93542373,2.87905263 C7.02762712,2.89326316 7.11983051,2.85347368 7.16881356,2.77389474 L7.25813559,2.63747368 C7.29847458,2.57778947 7.35610169,2.52947368 7.42525424,2.50389474 L7.45694915,2.49252632 C7.53762712,2.46126316 7.62694915,2.48684211 7.67881356,2.55505263 L7.7940678,2.70852632 C7.82288136,2.74547368 7.87186441,2.77105263 7.9179661,2.76252632 C8.00440678,2.75115789 8.0159322,2.66589474 7.96694915,2.62894737 L7.81135593,2.50957895 C7.78254237,2.48968421 7.77966102,2.44421053 7.81711864,2.41863158 C7.84305085,2.39873684 7.88050847,2.40157895 7.90355932,2.42431579 L8.0159322,2.51810526 C8.07355932,2.56642105 8.09661017,2.64315789 8.07932203,2.71705263 C8.07644068,2.73410526 8.07932203,2.75115789 8.09372881,2.76536842 L8.19457627,2.87052632 C8.22338983,2.90178947 8.27525424,2.89042105 8.28677966,2.84778947 L8.3040678,2.78526316 C8.31271186,2.75684211 8.35305085,2.76252632 8.38186441,2.77389474 C8.4020339,2.77957895 8.42220339,2.77389474 8.43372881,2.75684211 C8.45677966,2.72273684 8.47694915,2.68863158 8.49423729,2.65168421 C8.5,2.63747368 8.49711864,2.62042105 8.48847458,2.60905263 L8.47118644,2.58915789 C8.45389831,2.56926316 8.45389831,2.54368421 8.46830508,2.52094737 L8.61813559,2.31347368 C8.63254237,2.29073684 8.66423729,2.28505263 8.68728814,2.29642105 C8.81118644,2.35894737 9.16847458,2.53515789 9.17711864,2.54084211 C9.18864407,2.54652632 9.09932203,2.71705263 9.09932203,2.72273684 C9.09932203,2.72842105 8.8140678,2.70284211 8.65559322,2.68863158 C8.63254237,2.68578947 8.60949153,2.69431579 8.59508475,2.71136842 C8.55762712,2.754 8.5259322,2.79947368 8.49711864,2.84778947 C8.48559322,2.86768421 8.48559322,2.89326316 8.49711864,2.91315789 L8.50864407,2.93021053 C8.51728814,2.94442105 8.53457627,2.95578947 8.55186441,2.95578947 L8.77372881,2.97284211 C8.81118644,2.97568421 8.83423729,3.01263158 8.82271186,3.04673684 L8.75932203,3.22010526 C8.75067797,3.24852632 8.71898305,3.26273684 8.69305085,3.25421053 L8.23491525,3.12347368 C8.21474576,3.11778947 8.19169492,3.12347368 8.17728814,3.14052632 L8.06779661,3.28547368 C8.04762712,3.30821053 8.0159322,3.31105263 7.99,3.294 L7.73644068,3.10357895 C7.70186441,3.078 7.68745763,3.03821053 7.68457627,2.99557895 C7.68169492,2.92452632 7.61830508,2.87336842 7.54915254,2.88757895 L7.11983051,2.96715789 C6.95271186,2.99842105 6.80288136,3.08368421 6.69338983,3.20873684 L6.63,3.27978947 C6.50033898,3.42757895 6.41966102,3.61515789 6.39949153,3.81126316 L6.38508475,3.96189474 C6.37355932,4.09263158 6.42254237,4.22336842 6.52050847,4.31147368 L6.70491525,4.47915789 C6.77983051,4.54736842 6.88067797,4.58431579 6.98152542,4.58147368 L7.37915254,4.56442105 C7.49152542,4.55873684 7.59525424,4.63263158 7.6240678,4.74063158 L7.7220339,5.08736842 C7.75084746,5.184 7.75661017,5.28915789 7.73932203,5.38863158 L7.73355932,5.42842105 C7.71338983,5.55915789 7.72491525,5.69557895 7.77389831,5.82063158 L7.97847458,6.35210526 C8.01305085,6.44021053 8.10813559,6.49136842 8.20322034,6.46578947 L8.27237288,6.44873684 C8.41355932,6.41178947 8.53457627,6.32084211 8.60661017,6.19578947 L8.83135593,5.80642105 C8.88033898,5.72115789 8.93508475,5.64157895 9.01,5.57336842 C9.05610169,5.53073684 9.08491525,5.47105263 9.08779661,5.40852632 L9.10220339,5.11010526 C9.09067797,5.00778947 9.13101695,4.90547368 9.20881356,4.83442105 L9.38457627,4.67242105 C9.45661017,4.60705263 9.50559322,4.51894737 9.52576271,4.42515789 L9.5459322,4.33421053 C9.56033898,4.26315789 9.48830508,4.20347368 9.4220339,4.23189474 C9.28949153,4.28873684 9.13966102,4.24610526 9.0820339,4.11821053 L8.79389831,3.49010526 C8.77661017,3.45315789 8.80542373,3.41336842 8.84288136,3.41336842 C8.86305085,3.41336842 8.88322034,3.42473684 8.89186441,3.44178947 L9.15983051,3.95052632 C9.22033898,4.06705263 9.36728814,4.10684211 9.47966102,4.04147368 L9.82254237,3.84252632 C9.92915254,3.78284211 9.74762712,3.52705263 9.70440678,3.55547368 L9.65542373,3.58957895 C9.62661017,3.60947368 9.58915254,3.59810526 9.57474576,3.56684211 L9.49694915,3.39347368 C9.48254237,3.36221053 9.48542373,3.32242105 9.51135593,3.29684211 C9.54305085,3.26273684 9.59491525,3.26273684 9.62949153,3.29115789 C9.72457627,3.37357895 9.83118644,3.43894737 9.95508475,3.45884211 L10.2547458,3.50715789 C10.3066102,3.51568421 10.3527119,3.54126316 10.3844068,3.58105263 L10.54,3.76294737 C10.5861017,3.81694737 10.6235593,3.88231579 10.6437288,3.95052632 L10.7416949,4.25747368 C10.7647458,4.32852632 10.8540678,4.35410526 10.9116949,4.30578947 L10.9664407,4.26031579 C10.9866102,4.24326316 11.0010169,4.21768421 11.0038983,4.19210526 L11.009661,4.14094737 C11.0211864,4.02726316 11.0845763,3.92210526 11.179661,3.85389474 L11.4130508,3.68905263 C11.4418644,3.66915789 11.4822034,3.68052632 11.4966102,3.71178947 L11.6233898,3.996 C11.6377966,4.03010526 11.6781356,4.04147368 11.7127119,4.03010526 C11.7501695,4.01589474 11.7933898,4.04147368 11.7962712,4.08126316 L11.8308475,4.35694737 C11.8308475,4.35978947 11.8337288,4.36547368 11.8337288,4.36831579 L11.9201695,4.53884211 C11.9374576,4.57010526 11.9,4.60421053 11.8683051,4.58715789 L11.7127119,4.49621053 C11.6983051,4.48768421 11.6810169,4.49052632 11.6694915,4.50189474 L11.6637288,4.50757895 C11.649322,4.52178947 11.649322,4.54168421 11.6608475,4.55589474 L12.0815254,5.02484211 C12.1276271,5.076 12.1881356,5.11010526 12.2544068,5.12431579 L12.7874576,5.24368421 C12.8018644,5.24652632 12.8162712,5.24084211 12.8249153,5.22947368 L12.8249153,5.22663158 C12.839322,5.20673684 12.8277966,5.17831579 12.8047458,5.17263158 L12.4186441,5.05326316 C12.3062712,5.01915789 12.2198305,4.92536842 12.1967797,4.81168421 L12.1622034,4.65536842 C12.1535593,4.60989474 12.1333898,4.57010526 12.1016949,4.536 C12.0325424,4.45926316 11.9115254,4.31715789 11.9144068,4.31147368 C11.9172881,4.30863158 11.9172881,4.27736842 11.9201695,4.24042105 C11.9230508,4.19210526 11.9835593,4.16936842 12.0181356,4.20631579 L12.1276271,4.32852632 C12.150678,4.35410526 12.1910169,4.35410526 12.2111864,4.32568421 L12.3005085,4.21768421 C12.3437288,4.16652632 12.3466102,4.09263158 12.3062712,4.03863158 L12.24,3.95052632 C12.1910169,3.88515789 12.1938983,3.79705263 12.2428814,3.73168421 C12.2688136,3.69757895 12.3120339,3.68052632 12.3552542,3.68052632 L12.6289831,3.68905263 C12.6981356,3.69189474 12.7615254,3.65210526 12.790339,3.58957895 L12.8825424,3.38494737 C12.92,3.29968421 12.92,3.20305263 12.8825424,3.12063158 L12.7730508,2.87905263 C12.7644068,2.85631579 12.7672881,2.83073684 12.7874576,2.81652632 L12.9286441,2.69431579 C12.9516949,2.67442105 12.9862712,2.67726316 13.0064407,2.7 L13.0928814,2.79378947 C13.0986441,2.80231579 13.1044068,2.81084211 13.1072881,2.81936842 L13.1447458,2.99842105 C13.1533898,3.04105263 13.2052542,3.05526316 13.2369492,3.02684211 L13.3176271,2.95010526 C13.3320339,2.93589474 13.3377966,2.916 13.3320339,2.89610526 L13.2830508,2.71421053 C13.2772881,2.69715789 13.2830508,2.67726316 13.2974576,2.66305263 L13.43,2.52663158 C13.4386441,2.51526316 13.4530508,2.50957895 13.4674576,2.50957895 L13.6288136,2.49821053 C13.6518644,2.49536842 13.6691525,2.48115789 13.6777966,2.46126316 L13.8708475,1.87863158 C13.8910169,1.81610526 13.8708475,1.75073684 13.8161017,1.71094737 L13.7354237,1.65126316 C13.7066102,1.63136842 13.7066102,1.59157895 13.7325424,1.56884211 L13.8881356,1.42673684 C13.9774576,1.34715789 14.0955932,1.30452632 14.2137288,1.30736842 L14.2742373,1.31021053 C14.3664407,1.31305263 14.4557627,1.28178947 14.5277966,1.22778947 L14.6286441,1.15105263 C14.7122034,1.08568421 14.8130508,1.04873684 14.919661,1.04589474 L14.9628814,1.04589474 C14.9801695,1.04589474 14.9888136,1.06578947 14.9772881,1.07715789 L14.62,1.50915789 C14.5854237,1.55178947 14.5681356,1.60578947 14.5738983,1.65978947 L14.5825424,1.77347368 C14.5883051,1.84452632 14.6805085,1.87294737 14.7237288,1.81610526 L14.9542373,1.53757895 C14.9628814,1.52621053 14.9686441,1.50915789 14.9657627,1.49494737 L14.9542373,1.41821053 C14.9427119,1.35 14.9916949,1.28747368 15.0579661,1.27894737 L15.2769492,1.24768421 C15.3057627,1.24484211 15.3316949,1.23347368 15.3547458,1.21926316 L15.6457627,1.02884211 C15.6947458,0.997578947 15.7149153,0.935052632 15.6947458,0.881052632 L15.6428814,0.733263158 Z M9.71305085,2.862 C9.71016949,2.89326316 9.68135593,2.916 9.64966102,2.91031579 L9.49118644,2.88473684 C9.45661017,2.87905263 9.43644068,2.84494737 9.4479661,2.81368421 L9.48542373,2.7 C9.49118644,2.68578947 9.48830508,2.67157895 9.48254237,2.65736842 L9.38169492,2.46694737 C9.36728814,2.44136842 9.3759322,2.40726316 9.40186441,2.39305263 L9.62372881,2.268 C9.65542373,2.25094737 9.69576271,2.268 9.70440678,2.30210526 L9.71305085,2.33052632 C9.71881356,2.35610526 9.70728814,2.38168421 9.68423729,2.39305263 L9.63813559,2.41863158 C9.60644068,2.43568421 9.59779661,2.47547368 9.62084746,2.50105263 C9.66118644,2.54936842 9.7159322,2.61473684 9.72457627,2.62894737 C9.73033898,2.646 9.71881356,2.78242105 9.71305085,2.862 Z" id="Shape" fill-rule="nonzero"></path>
                <path d="M14.0120339,2.28221053 L14.0437288,2.07189474 C14.0523729,2.02357895 14.0120339,1.97810526 13.9630508,1.97526316 C13.9428814,1.97526316 13.9255932,1.98947368 13.9255932,2.00936842 L13.9025424,2.36747368 C13.899661,2.41578947 13.8881356,2.46410526 13.8650847,2.50957895 L13.7325424,2.79947368 C13.6979661,2.87336842 13.6461017,2.93873684 13.5827119,2.98989474 L13.4011864,3.132 C13.3925424,3.14052632 13.3867797,3.15189474 13.3867797,3.16326316 L13.3954237,3.27126316 C13.3983051,3.29968421 13.4271186,3.31389474 13.4501695,3.29968421 L13.8218644,3.06947368 C13.8938983,3.024 13.94,2.94726316 13.94,2.862 C13.9428814,2.76821053 13.9457627,2.65452632 13.9601695,2.63747368 C13.9716949,2.62042105 14.0235593,2.57778947 14.069661,2.54368421 C14.11,2.51242105 14.11,2.45273684 14.069661,2.41863158 C14.0264407,2.38452632 14.0062712,2.33336842 14.0120339,2.28221053 Z" id="Path"></path>
                <path d="M13.1159322,3.50715789 C13.1130508,3.49010526 13.0986441,3.47873684 13.0813559,3.47873684 L13.0669492,3.47873684 C13.0525424,3.47873684 13.0410169,3.48726316 13.0352542,3.49863158 L12.9920339,3.58105263 C12.9718644,3.62084211 12.9718644,3.66915789 12.9949153,3.70610526 L13.0554237,3.80273684 L13.0928814,3.80273684 L13.0871186,3.76294737 C13.0842373,3.73168421 13.09,3.70042105 13.1101695,3.67484211 C13.130339,3.64642105 13.1389831,3.61231579 13.130339,3.57821053 L13.1159322,3.50715789 Z" id="Path"></path>
                <path d="M12.8738983,4.43368421 C12.8508475,4.42515789 12.8277966,4.428 12.8047458,4.43936842 L12.4359322,4.64115789 C12.3984746,4.66105263 12.3811864,4.70652632 12.3984746,4.74631579 L12.4445763,4.85147368 C12.4561017,4.87705263 12.4762712,4.89410526 12.5022034,4.89978947 L12.7384746,4.95378947 C12.7932203,4.968 12.8508475,4.93389474 12.8652542,4.87705263 L12.9257627,4.62978947 C12.9286441,4.62410526 12.9286441,4.61557895 12.9286441,4.60989474 L12.9286441,4.51042105 C12.9286441,4.47631579 12.9055932,4.44505263 12.8738983,4.43368421 Z" id="Path"></path>
                <path d="M14.1272881,4.97652632 L13.7008475,4.78042105 C13.6749153,4.76905263 13.6461017,4.76336842 13.6172881,4.76905263 L13.5164407,4.78326316 C13.4559322,4.79178947 13.43,4.86284211 13.470339,4.90831579 L13.6576271,5.12147368 C13.6950847,5.16410526 13.7498305,5.18684211 13.8074576,5.18115789 L13.9342373,5.17263158 C13.9428814,5.17263158 13.9515254,5.16978947 13.9572881,5.16410526 C14.0005085,5.12147368 14.0725424,5.12147368 14.1186441,5.16126316 L14.2713559,5.29484211 L14.2828814,5.238 L14.2281356,5.08452632 C14.2079661,5.03621053 14.1733898,4.99926316 14.1272881,4.97652632 Z" id="Path"></path>
                <path d="M14.2252542,5.72684211 C14.1272881,5.63021053 14.0494915,5.51652632 13.9947458,5.39147368 L13.9716949,5.33747368 C13.9659322,5.32610526 13.9544068,5.31757895 13.94,5.31473684 L13.9140678,5.31473684 C13.8938983,5.31473684 13.8737288,5.33178947 13.8766102,5.35168421 L13.8823729,5.454 C13.8852542,5.51368421 13.8276271,5.55915789 13.77,5.54494737 L13.6374576,5.51084211 C13.6172881,5.50515789 13.6057627,5.48526316 13.6115254,5.46821053 L13.6432203,5.34884211 C13.6489831,5.32894737 13.6345763,5.30621053 13.6115254,5.30336842 L13.4184746,5.28063158 C13.3550847,5.27210526 13.2916949,5.29484211 13.2484746,5.33747368 L12.9718644,5.60463158 C12.9372881,5.63873684 12.8940678,5.66431579 12.8450847,5.68136842 L12.6318644,5.75242105 C12.5684746,5.77515789 12.5310169,5.83768421 12.5425424,5.90305263 L12.6174576,6.30378947 C12.620339,6.32084211 12.6174576,6.33789474 12.6059322,6.35210526 C12.5857627,6.38052632 12.5915254,6.42031579 12.620339,6.44021053 L12.7010169,6.49989474 C12.7730508,6.55389474 12.8681356,6.57094737 12.9574576,6.54536842 L13.2744068,6.44873684 C13.340678,6.42884211 13.4098305,6.44305263 13.4645763,6.48568421 L13.5481356,6.55105263 C13.5711864,6.57094737 13.6057627,6.56810526 13.6259322,6.54536842 C13.6518644,6.51694737 13.7008475,6.52263158 13.7181356,6.55673684 L13.7383051,6.59368421 C13.7728814,6.65905263 13.8305085,6.70736842 13.9025424,6.73010526 L14.0091525,6.76705263 C14.0783051,6.78978947 14.1532203,6.78126316 14.2137288,6.73863158 L14.2828814,6.69315789 C14.3232203,6.66473684 14.3520339,6.62494737 14.360678,6.57663158 L14.4672881,6.07642105 C14.4788136,6.01673684 14.4615254,5.95705263 14.4183051,5.91442105 L14.2252542,5.72684211 Z" id="Path"></path>
                <path d="M9.53440678,5.43410526 C9.51711864,5.39147368 9.46525424,5.37726316 9.43067797,5.40852632 L9.32694915,5.49947368 C9.27508475,5.54494737 9.24338983,5.60463158 9.23186441,5.67284211 L9.21169492,5.80357895 C9.19728814,5.90021053 9.26644068,5.99115789 9.36728814,6.00252632 C9.41338983,6.00821053 9.45949153,5.97978947 9.47677966,5.93715789 L9.58627119,5.65863158 C9.59779661,5.63021053 9.59779661,5.59610526 9.58627119,5.56768421 L9.53440678,5.43410526 Z" id="Path"></path>
                <path d="M4.63898305,4.08978947 C4.57559322,4.07273684 4.50932203,4.06989474 4.4459322,4.08410526 C4.3479661,4.10684211 4.20389831,4.14378947 4.12610169,4.16084211 C4.10016949,4.16652632 4.09152542,4.19778947 4.11169492,4.21484211 L4.13186441,4.23473684 C4.18372881,4.28873684 4.26152542,4.31431579 4.33644068,4.30294737 L4.42288136,4.28873684 C4.46610169,4.28305263 4.50932203,4.28305263 4.55254237,4.28873684 L5.0279661,4.36263158 C5.05677966,4.36831579 5.08559322,4.35410526 5.10288136,4.33136842 L5.12881356,4.29157895 C5.14610169,4.266 5.13457627,4.22905263 5.10288136,4.22052632 C4.99050847,4.19210526 4.76576271,4.12673684 4.63898305,4.08978947 Z" id="Path"></path>
                <path d="M5.36508475,4.28589474 C5.33627119,4.28021053 5.30457627,4.29442105 5.29016949,4.31715789 L5.24118644,4.39105263 C5.23542373,4.39673684 5.24118644,4.40810526 5.24694915,4.40810526 L5.63305085,4.51042105 C5.65610169,4.51610526 5.6820339,4.51042105 5.70220339,4.49621053 C5.75694915,4.45073684 5.48898305,4.30578947 5.36508475,4.28589474 Z" id="Path"></path>
            </g>
            <path d="M30.7642373,23.9106316 C30.7440678,23.5695789 30.729661,22.5236842 30.7210169,21.0628421 L0.276610169,21.0628421 L0.276610169,23.9191579 C0.276610169,25.1497895 1.17271186,26.6390526 2.80932203,26.6390526 C4.44881356,26.6390526 31.5652542,26.6305263 31.5652542,26.6305263 C31.5652542,26.6305263 30.9255932,26.4884211 30.7642373,23.9106316 Z" id="Path" fill="url(#linearGradient-2)" opacity="0.3"></path>
            <rect id="Rectangle" fill-opacity="0.7" fill="#1470CC" x="2.59322034" y="5.68421053" width="7.20338983" height="2.55789474"></rect>
            <rect id="Rectangle" fill-opacity="0.7" fill="#CC1452" x="10.0847458" y="5.68421053" width="10.9491525" height="2.55789474"></rect>
            <rect id="Rectangle" fill-opacity="0.7" fill="#1470CC" x="21.3220339" y="5.68421053" width="7.20338983" height="2.55789474"></rect>
        </g>
    </g>
</svg>